# xmcd CD database file
#
# Track frame offsets:
#	150
#	21415
#	39285
#
# Disc length: 806 seconds
#
# Revision: 7
# Processed by: cddbd v1.5PL3 Copyright (c) Steve Scherf et al.
# Submitted via: CDex 1.50beta9
#
DISCID=1b032403
DTITLE=近藤真彦 - ミッドナイトシャッフル
DYEAR=1996
DGENRE=J-POP
TTITLE0=ミッドナイトシャッフル
TTITLE1=TRUTH
TTITLE2=ミッドナイトシャッフル(Original KARAOKE)
EXTD=YEAR: 1996
EXTT0=
EXTT1=
EXTT2=
PLAYORDER=
